<?xml version="1.0" encoding="utf-8"?>
<!-- Generator: Adobe Illustrator 26.3.1, SVG Export Plug-In . SVG Version: 6.00 Build 0)  -->
<svg version="1.1" id="Layer_1" xmlns="http://www.w3.org/2000/svg" xmlns:xlink="http://www.w3.org/1999/xlink" x="0px" y="0px"
	 viewBox="0 0 500 500" style="enable-background:new 0 0 500 500;" xml:space="preserve">
<style type="text/css">
	.st0{fill:#FFFFFF;}
</style>
<g>
	<g>
		<polyline class="st0" points="223.1,182.6 241,182.6 245.9,191.2 330.7,343.5 232.1,230.8 		"/>
		<polyline class="st0" points="232.1,230.8 330.7,343.5 339,358.4 339.7,359.6 303.8,359.6 303.8,359.6 		"/>
		<path class="st0" d="M232.1,230.8"/>
		<line class="st0" x1="142.4" y1="391.7" x2="106.6" y2="391.7"/>
		<polyline class="st0" points="142.4,391.7 106.6,391.7 223.1,182.6 232.1,230.8 		"/>
		<line class="st0" x1="196.2" y1="359.6" x2="178.3" y2="359.6"/>
		<path class="st0" d="M196.2,327.4"/>
		<polyline class="st0" points="196.2,359.6 178.3,359.6 232.1,263 241,279.1 		"/>
		<polyline class="st0" points="393.4,391.7 375.5,391.7 276.9,182.6 		"/>
		<polyline class="st0" points="375.5,391.7 259,182.6 259,182.6 276.9,182.6 		"/>
	</g>
</g>
</svg>
