<?xml version="1.0" encoding="utf-8"?>
<!-- Generator: Adobe Illustrator 26.3.1, SVG Export Plug-In . SVG Version: 6.00 Build 0)  -->
<svg version="1.1" id="Layer_1" xmlns="http://www.w3.org/2000/svg" xmlns:xlink="http://www.w3.org/1999/xlink" x="0px" y="0px"
	 viewBox="0 0 500 500" style="enable-background:new 0 0 500 500;" xml:space="preserve">
<style type="text/css">
	.st0{fill:#FFFFFF;}
</style>
<g>
	<g>
		<polyline class="st0" points="203.2,58.2 234.3,58.2 242.9,73.3 390.4,341 218.8,142.9 		"/>
		<polyline class="st0" points="218.8,142.9 390.4,341 404.9,367.2 406.1,369.3 343.6,369.3 343.6,369.3 		"/>
		<path class="st0" d="M218.8,142.9"/>
		<line class="st0" x1="62.7" y1="425.7" x2="0.4" y2="425.7"/>
		<polyline class="st0" points="62.7,425.7 0.4,425.7 203.2,58.2 218.8,142.9 		"/>
		<line class="st0" x1="156.4" y1="369.3" x2="125.2" y2="369.3"/>
		<path class="st0" d="M156.4,312.7"/>
		<polyline class="st0" points="156.4,369.3 125.2,369.3 218.8,199.5 307.2,369.3 		"/>
		<polyline class="st0" points="499.6,425.7 468.4,425.7 296.8,58.2 		"/>
		<polyline class="st0" points="468.4,425.7 265.7,58.2 265.7,58.2 296.8,58.2 		"/>
	</g>
</g>
</svg>
